<svg xmlns="http://www.w3.org/2000/svg" width="42.665" height="18.6" viewBox="0 0 42.665 18.6">
  <g id="Group_17724" data-name="Group 17724" transform="translate(-77.336 0)">
    <g id="Group_25138" data-name="Group 25138">
      <path id="Path_17" data-name="Path 17" d="M9.271,7.473c.146-.139.242-.228.335-.321q3.313-3.314,6.625-6.63a1.363,1.363,0,0,1,1.4-.471,1.286,1.286,0,0,1,.707,2.028,2.976,2.976,0,0,1-.292.322q-3.812,3.817-7.627,7.631a1.361,1.361,0,0,1-2.222.012Q4.355,6.2.514,2.364A1.355,1.355,0,0,1,.061.928,1.285,1.285,0,0,1,2.055.248a3.133,3.133,0,0,1,.377.34Q5.707,3.863,8.979,7.14C9.074,7.235,9.155,7.34,9.271,7.473Z" transform="translate(109.387 18.6) rotate(-90)" fill="#f75c02"/>
      <path id="Path_974" data-name="Path 974" d="M0,0H39.474" transform="translate(77.336 9.54)" fill="none" stroke="#f75c02" stroke-width="3"/>
    </g>
  </g>
</svg>
