<svg id="Group_25139" data-name="Group 25139" xmlns="http://www.w3.org/2000/svg" width="43.093" height="18.6" viewBox="0 0 43.093 18.6">
  <g id="Group_422" data-name="Group 422">
    <path id="Path_17" data-name="Path 17" d="M9.271,3.141c.146.139.242.228.335.321q3.313,3.314,6.625,6.63a1.363,1.363,0,0,0,1.4.471,1.286,1.286,0,0,0,.707-2.028,2.976,2.976,0,0,0-.292-.322Q14.231,4.4,10.417.581A1.361,1.361,0,0,0,8.194.569Q4.355,4.41.514,8.25A1.355,1.355,0,0,0,.061,9.686a1.285,1.285,0,0,0,1.993.679,3.133,3.133,0,0,0,.377-.34Q5.707,6.751,8.979,3.474C9.074,3.38,9.155,3.274,9.271,3.141Z" transform="translate(0 18.6) rotate(-90)" fill="#f75c02"/>
  </g>
  <path id="Path_9907" data-name="Path 9907" d="M0,0H39.474" transform="translate(3.619 9.54)" fill="none" stroke="#f75c02" stroke-width="3"/>
</svg>
