<svg xmlns="http://www.w3.org/2000/svg" width="21.271" height="18.701" viewBox="0 0 21.271 18.701">
  <g id="heart-svgrepo-com" transform="translate(0 -28.501)">
    <path id="Path_9847" data-name="Path 9847" d="M19.553,30.237a5.89,5.89,0,0,0-8.329,0l-.582.582-.591-.591a5.884,5.884,0,0,0-8.329-.009,5.884,5.884,0,0,0,.009,8.329L10.2,47.021a.6.6,0,0,0,.857,0l8.487-8.455a5.9,5.9,0,0,0,.009-8.333Zm-.866,7.472-8.058,8.027L2.589,37.7a4.668,4.668,0,1,1,6.6-6.6l1.019,1.019a.607.607,0,0,0,.861,0l1.01-1.01a4.671,4.671,0,0,1,6.606,6.606Z" transform="translate(0)" fill="#10221b"/>
  </g>
</svg>
