<svg xmlns="http://www.w3.org/2000/svg" width="19.228" height="19.91" viewBox="0 0 19.228 19.91">
  <g id="Group_6" data-name="Group 6" transform="translate(-94.123 -2)">
    <path id="Path_14" data-name="Path 14" d="M933.607,748.4c1.537,1.6,3.056,3.175,4.567,4.759a1.824,1.824,0,0,1,.391.567,1.015,1.015,0,0,1-.377,1.172,1.029,1.029,0,0,1-1.262-.04,3.7,3.7,0,0,1-.334-.325q-2.116-2.2-4.229-4.4c-.1-.1-.179-.22-.275-.34a7.983,7.983,0,0,1-6.826,1.161,7.737,7.737,0,0,1-4.511-3.3,8.031,8.031,0,1,1,12.855.742Zm-.229-5.17a5.938,5.938,0,1,0-5.939,5.938A5.943,5.943,0,0,0,933.378,743.228Z" transform="translate(-825.277 -733.183)" fill="#4f391f"/>
  </g>
</svg>
